<?xml version="1.0" encoding="UTF-8"?>
<svg width="212px" height="65px" viewBox="0 0 212 65" version="1.1" xmlns="http://www.w3.org/2000/svg" xmlns:xlink="http://www.w3.org/1999/xlink">
    <!-- Generator: Sketch 55.2 (78181) - https://sketchapp.com -->
    <title>BMSS logo_July2019</title>
    <desc>Created with Sketch.</desc>
    <defs>
        <linearGradient x1="0%" y1="50%" x2="100%" y2="50%" id="linearGradient-1">
            <stop stop-color="#003B4D" offset="8%"></stop>
            <stop stop-color="#04404D" offset="21%"></stop>
            <stop stop-color="#104F4D" offset="36%"></stop>
            <stop stop-color="#24674C" offset="52%"></stop>
            <stop stop-color="#3F894C" offset="70%"></stop>
            <stop stop-color="#62B54B" offset="88%"></stop>
            <stop stop-color="#6ABF4B" offset="92%"></stop>
        </linearGradient>
        <linearGradient x1="18.630477%" y1="15.0196088%" x2="95.4026886%" y2="101.645441%" id="linearGradient-2">
            <stop stop-color="#003B4D" offset="8%"></stop>
            <stop stop-color="#04404D" offset="21%"></stop>
            <stop stop-color="#104F4D" offset="36%"></stop>
            <stop stop-color="#24674C" offset="52%"></stop>
            <stop stop-color="#3F894C" offset="70%"></stop>
            <stop stop-color="#62B54B" offset="88%"></stop>
            <stop stop-color="#6ABF4B" offset="92%"></stop>
        </linearGradient>
    </defs>
    <g id="Page-1" stroke="none" stroke-width="1" fill="none" fill-rule="evenodd">
        <g id="BMSS-logo_July2019" fill-rule="nonzero">
            <path d="M79.7255977,53.4450146 L81.4562099,53.4450146 L85.2511953,63.4578426 L86.2277551,63.624723 L86.2277551,64.4158601 L81.7714286,64.4158601 L81.7714286,63.624723 L82.8097959,63.5196501 L82.9334111,63.3156851 L81.938309,60.5714286 L78.3411079,60.5714286 L77.3460058,63.3033236 L77.5190671,63.5072886 L78.5574344,63.624723 L78.5574344,64.4158601 L75.0034985,64.4158601 L75.0034985,63.624723 L75.9924198,63.4763848 L79.7255977,53.4450146 Z M80.0902624,55.6639067 L78.6563265,59.6257726 L81.5612828,59.6257726 L80.0902624,55.6639067 Z" id="Shape" fill="#003B4D"></path>
            <path d="M93.2738192,53.8591254 L92.0376676,53.8591254 L92.0376676,53.2410496 L94.5099708,52.4869971 L95.2763848,52.4869971 L95.2763848,63.396035 L95.4988921,63.6556268 L96.345656,63.7236152 L96.345656,64.4344023 L93.255277,64.4344023 L93.255277,63.5258309 C92.8276631,63.846525 92.3627815,64.114247 91.8707872,64.3231487 C91.478778,64.4860375 91.0591162,64.5720681 90.6346356,64.5765598 C89.7381774,64.5951576 88.8848274,64.1925046 88.3292128,63.4887464 C87.0348021,61.6825659 87.1525181,59.2233251 88.6135277,57.5490379 C89.4228296,56.7190067 90.5454252,56.2699685 91.7039067,56.3128863 C91.9449563,56.3128863 92.1921866,56.3128863 92.4455977,56.3561516 C92.6990087,56.3994169 92.9771429,56.4241399 93.2614577,56.473586 L93.2738192,53.8591254 Z M93.2738192,62.8644898 L93.2738192,57.4625073 C93.0553034,57.3887795 92.8323532,57.3289132 92.6062974,57.2832653 C92.4231258,57.2458799 92.2369397,57.2251925 92.0500292,57.2214577 C91.3705582,57.2024844 90.7245731,57.5162485 90.3194169,58.0620408 C89.856928,58.7179814 89.6283606,59.5103483 89.6704373,60.3118367 C89.6365942,61.0616186 89.8541261,61.8012273 90.2885131,62.4132945 C90.6775668,62.9148708 91.2861075,63.1960904 91.9202332,63.1673469 C92.1283299,63.1649778 92.33556,63.1401102 92.538309,63.0931778 C92.7883164,63.033479 93.034038,62.9570782 93.2738192,62.8644898 L93.2738192,62.8644898 Z" id="Shape" fill="#003B4D"></path>
            <polygon id="Path" fill="#003B4D" points="97.52 56.5353936 101.710554 56.5353936 101.710554 57.2770845 100.845248 57.3574344 100.666006 57.5675802 102.384257 62.2896793 104.238484 57.5861224 104.108688 57.3574344 103.268105 57.2770845 103.268105 56.5353936 106.401749 56.5353936 106.401749 57.2770845 105.443732 57.3883382 102.643848 64.4034985 101.154286 64.4034985 98.5212828 57.3636152 97.5323615 57.2709038"></polygon>
            <path d="M109.856793,56.3808746 L110.678834,56.3808746 L110.678834,63.3651312 L110.926064,63.6123615 L111.846997,63.6741691 L111.846997,64.4034985 L107.520466,64.4034985 L107.520466,63.6741691 L108.416676,63.6123615 L108.651545,63.3651312 L108.651545,57.802449 L107.563732,57.802449 L107.563732,57.1843732 L109.856793,56.3808746 Z M109.683732,52.6724198 C110.010918,52.6622595 110.328777,52.7822899 110.56758,53.0061808 C110.796712,53.2298814 110.922156,53.5390133 110.913703,53.8591254 C110.931746,54.1921775 110.807313,54.5171904 110.571465,54.7530391 C110.335616,54.9888878 110.010603,55.1133201 109.677551,55.095277 C109.356629,55.1048415 109.045916,54.9818979 108.818426,54.7553353 C108.588003,54.5325039 108.462318,54.2227789 108.472303,53.9023907 C108.462957,53.5778521 108.585617,53.2633959 108.812245,53.0309038 C109.042286,52.8005001 109.35844,52.6771778 109.683732,52.6909621 L109.683732,52.6724198 Z" id="Shape" fill="#003B4D"></path>
            <path d="M119.486414,56.7208163 L119.486414,58.8717201 L118.491312,58.8717201 L118.330612,57.6355685 L118.132828,57.4501458 C117.956537,57.369064 117.772143,57.3069087 117.582741,57.264723 C117.406754,57.22122 117.226291,57.1984029 117.045015,57.1967347 C116.715451,57.175348 116.388439,57.2669113 116.117901,57.4563265 C115.89588,57.6261829 115.771182,57.8940516 115.78414,58.1732945 C115.781062,58.4173369 115.874339,58.6527497 116.043732,58.8284548 C116.431393,59.1437461 116.862247,59.4018421 117.323149,59.5948688 L117.360233,59.5948688 C118.942507,60.3406803 119.733644,61.1009135 119.733644,61.8755685 C119.765632,62.6344493 119.432475,63.362799 118.837434,63.8348688 C118.118521,64.346838 117.24618,64.5976361 116.365131,64.545656 C115.932672,64.5450183 115.500869,64.5119616 115.073353,64.4467638 C114.592338,64.3688919 114.11576,64.2657364 113.645598,64.1377259 L113.645598,61.7457726 L114.634519,61.7457726 L114.826122,63.1302624 L114.999184,63.3156851 C115.211153,63.4256623 115.435155,63.5107001 115.666706,63.5690962 C115.901399,63.6263741 116.142092,63.6554232 116.383673,63.6556268 C116.752354,63.676528 117.11633,63.564704 117.409679,63.3404082 C117.660773,63.1299056 117.800037,62.8148498 117.786706,62.4874636 C117.786706,62.0300875 117.310787,61.5912536 116.35895,61.1647813 C116.037551,61.0226239 115.78414,60.9113703 115.611079,60.8186589 C115.072243,60.5868568 114.583249,60.2531657 114.170962,59.8359184 C113.89467,59.5175983 113.747013,59.1076857 113.756851,58.6862974 C113.742617,57.9943235 114.074047,57.3407344 114.6407,56.9433236 C115.330588,56.4672649 116.158484,56.2325858 116.995569,56.2758017 C117.409488,56.2783745 117.822656,56.3114279 118.23172,56.3746939 C118.659077,56.4539884 119.078846,56.5697868 119.486414,56.7208163 L119.486414,56.7208163 Z" id="Path" fill="#003B4D"></path>
            <path d="M126.130729,56.3314286 C127.248171,56.2748491 128.339444,56.6818403 129.146939,57.4563265 C129.923096,58.2752929 130.329662,59.376594 130.271837,60.5034402 C130.317417,61.5981634 129.892217,62.660038 129.103673,63.420758 C128.258865,64.1811643 127.148755,64.5785835 126.013294,64.5271137 C124.901648,64.5775308 123.817299,64.1736889 123.009446,63.4083965 C122.236601,62.6317961 121.824176,61.5671105 121.872187,60.4725364 C121.822755,59.349858 122.246524,58.2579257 123.04035,57.4625073 C123.877666,56.6872114 124.990765,56.2798173 126.130729,56.3314286 L126.130729,56.3314286 Z M126.062741,57.190508 C125.471337,57.1860525 124.927188,57.5130191 124.653528,58.0373178 C124.276186,58.7669634 124.10118,59.584367 124.146706,60.4045481 C124.102438,61.2378123 124.274929,62.0683219 124.647347,62.8150437 C124.913297,63.3452001 125.45727,63.6782942 126.050379,63.6741691 C126.648641,63.687061 127.204142,63.3652042 127.490496,62.8397668 C127.870522,62.1044183 128.045587,61.2803277 127.997318,60.4539942 C128.041386,59.6233166 127.864368,58.7958107 127.484315,58.0558601 C127.215681,57.5273518 126.674138,57.1933605 126.081283,57.190508 L126.062741,57.190508 Z" id="Shape" fill="#003B4D"></path>
            <path d="M132.187872,64.4034985 L132.187872,63.6741691 L133.065539,63.6123615 L133.300408,63.3651312 L133.300408,57.802449 L132.107522,57.802449 L132.107522,57.1843732 L134.530379,56.4303207 L135.327697,56.4303207 L135.253528,58.0805831 C135.544023,57.7839067 135.871603,57.4995918 136.16828,57.2214577 C136.492672,56.9428356 136.830988,56.6808469 137.181924,56.4365015 L137.404431,56.4055746 L137.55277,56.4055746 C137.73383,56.4047825 137.914343,56.4255311 138.090496,56.4674052 C138.279902,56.5204732 138.464038,56.590817 138.640583,56.677551 L138.430437,58.9149854 L137.571312,58.9149854 C137.460198,58.7314842 137.305133,58.5785438 137.120117,58.4699708 C136.92884,58.3726882 136.716598,58.3238726 136.502041,58.3278134 C136.329148,58.3343011 136.159143,58.3741787 136.001399,58.4452478 C135.769382,58.5363667 135.545983,58.6480658 135.333878,58.7790087 L135.333878,63.420758 L135.574927,63.6679883 L136.755452,63.7297959 L136.755452,64.4591254 L132.187872,64.4034985 Z" id="Path" fill="#003B4D"></path>
            <path d="M146.100758,56.7208163 L146.100758,58.8717201 L145.105656,58.8717201 L144.944956,57.6355685 L144.747172,57.4501458 C144.570881,57.369064 144.386487,57.3069087 144.197085,57.264723 C144.021027,57.221601 143.840609,57.1987896 143.659359,57.1967347 C143.329795,57.175348 143.002783,57.2669113 142.732245,57.4563265 C142.510224,57.6261829 142.385526,57.8940516 142.398484,58.1732945 C142.395406,58.4173369 142.488683,58.6527497 142.658076,58.8284548 C143.045737,59.1437461 143.476591,59.4018421 143.937493,59.5948688 L143.974577,59.5948688 C145.556851,60.3406803 146.347988,61.1009135 146.347988,61.8755685 C146.379976,62.6344493 146.046819,63.362799 145.451778,63.8348688 C144.732865,64.346838 143.860524,64.5976361 142.979475,64.545656 C142.547016,64.5450183 142.115213,64.5119616 141.687697,64.4467638 C141.206682,64.3688919 140.730104,64.2657364 140.259942,64.1377259 L140.259942,61.7457726 L141.248863,61.7457726 L141.440466,63.1302624 L141.613528,63.3156851 C141.825497,63.4256623 142.049499,63.5107001 142.28105,63.5690962 C142.515743,63.6263741 142.756436,63.6554232 142.998017,63.6556268 C143.366698,63.676528 143.730674,63.564704 144.024023,63.3404082 C144.275117,63.1299056 144.414381,62.8148498 144.40105,62.4874636 C144.40105,62.0300875 143.925131,61.5912536 142.973294,61.1647813 C142.651895,61.0226239 142.398484,60.9113703 142.225423,60.8186589 C141.686587,60.5868568 141.197593,60.2531657 140.785306,59.8359184 C140.509014,59.5175983 140.361357,59.1076857 140.371195,58.6862974 C140.353612,57.9935633 140.685799,57.3384815 141.255044,56.9433236 C141.944932,56.4672649 142.772828,56.2325858 143.609913,56.2758017 C144.023832,56.2783745 144.437,56.3114279 144.846064,56.3746939 C145.273421,56.4539884 145.69319,56.5697868 146.100758,56.7208163 L146.100758,56.7208163 Z" id="Path" fill="#003B4D"></path>
            <path d="M159.463557,58.568863 L162.053294,61.2327697 C162.274123,60.9594977 162.464774,60.6631612 162.621924,60.3489213 C162.769457,60.0477053 162.881463,59.7303554 162.955685,59.4032653 L162.764082,59.1251312 L161.886414,58.9829738 L161.886414,58.2412828 L165.335277,58.2412828 L165.335277,59.0076968 L164.185656,59.2240233 C164.011604,59.7299584 163.794482,60.2200341 163.536676,60.688863 C163.29129,61.1279392 163.003545,61.5419609 162.677551,61.9250146 L164.185656,63.5320117 L165.551603,63.6494461 L165.551603,64.4282216 L162.090379,64.4282216 L162.090379,64.0388338 L161.391953,63.2662391 C160.901339,63.6941412 160.343848,64.0386578 159.741691,64.2860641 C159.170475,64.5095737 158.562658,64.6248493 157.949271,64.6260058 C157.038379,64.6561488 156.151574,64.3302481 155.476968,63.7174344 C154.83463,63.1358463 154.478,62.3029566 154.500408,61.4367347 C154.479594,60.8116754 154.683531,60.1998619 155.075219,59.7123032 C155.530333,59.2002272 156.125559,58.8327773 156.787289,58.6553936 C156.340802,58.3145987 155.959691,57.8957964 155.662391,57.419242 C155.419147,57.0187226 155.290846,56.5589754 155.291545,56.090379 C155.276672,55.3179519 155.635791,54.5859014 156.255743,54.124898 C156.968341,53.5949855 157.840662,53.324566 158.728047,53.358484 C159.55309,53.3186512 160.366837,53.5629935 161.033469,54.0507289 C161.600941,54.4747691 161.927998,55.1473086 161.911137,55.8555102 C161.924852,56.4664376 161.703621,57.0593372 161.293061,57.5119534 C160.783174,58.014295 160.153441,58.3780935 159.463557,58.568863 L159.463557,58.568863 Z M157.44863,59.156035 C157.178692,59.3542429 156.953384,59.6069252 156.787289,59.8977259 C156.638351,60.1618729 156.559615,60.4597911 156.558601,60.7630321 C156.524899,61.4465233 156.767712,62.1148145 157.232303,62.6172595 C157.693001,63.0867994 158.330295,63.3403706 158.987638,63.3156851 C159.30136,63.3165042 159.612178,63.2556006 159.902391,63.1364431 C160.212637,63.0138359 160.49917,62.8381517 160.749155,62.6172595 L157.44863,59.156035 Z M158.83312,58.0002332 C159.194107,57.7510311 159.501041,57.4314835 159.73551,57.060758 C159.923386,56.7318743 160.017449,56.3577571 160.007464,55.9791254 C160.027985,55.5368963 159.897179,55.1008781 159.636618,54.7429738 C159.391526,54.4362487 159.015299,54.2641935 158.622974,54.2794169 C158.264533,54.2700212 157.918037,54.4086199 157.664956,54.6626239 C157.411579,54.9232447 157.275423,55.2759113 157.28793,55.6391837 C157.297118,56.0159033 157.417546,56.381486 157.634052,56.6899125 C157.981696,57.1716096 158.384077,57.6113256 158.83312,58.0002332 L158.83312,58.0002332 Z" id="Shape" fill="#003B4D"></path>
            <path d="M182.406531,64.0141108 C181.853772,64.2094446 181.285055,64.3562771 180.706822,64.4529446 C180.122862,64.5524251 179.531498,64.6020501 178.939125,64.6012828 C178.383643,64.6049154 177.829689,64.5426734 177.288863,64.4158601 C176.802234,64.3034713 176.33544,64.1180043 175.904373,63.8657726 C175.060134,63.3812691 174.363618,62.6762069 173.889446,61.8261224 C173.404121,60.9575984 173.152799,59.9778714 173.160117,58.9829738 C173.153909,58.1971748 173.303044,57.4178945 173.59895,56.6899125 C174.1713,55.3153794 175.291518,54.2422108 176.689329,53.7293294 C177.440899,53.4713138 178.231076,53.3437985 179.025656,53.3523032 C179.585356,53.3552444 180.143736,53.4069463 180.694461,53.5068222 C181.272643,53.6094605 181.841203,53.7603874 182.394169,53.9580175 L182.394169,56.6590087 L181.158017,56.6590087 L180.830437,54.9283965 L180.601749,54.6502624 C180.386978,54.5712586 180.16568,54.5112806 179.940408,54.4710204 C178.686394,54.2207454 177.394725,54.6646827 176.559534,55.6330029 C175.842001,56.5926156 175.485319,57.7742622 175.55207,58.9706122 C175.480218,60.1906584 175.856024,61.3949976 176.60898,62.3576676 C177.337323,63.1922573 178.407535,63.6476666 179.513936,63.5938192 C179.667081,63.5923082 179.819924,63.5799155 179.971312,63.5567347 L180.515219,63.445481 L180.762449,63.1982507 L181.158017,61.2451312 L182.394169,61.2451312 L182.406531,64.0141108 Z" id="Path" fill="#003B4D"></path>
            <path d="M184.415277,64.4034985 L184.415277,63.6123615 L185.391837,63.5258309 L185.688513,63.2724198 L185.688513,54.6811662 L185.441283,54.4524781 L184.353469,54.3721283 L184.353469,53.5809913 L188.803615,53.5809913 C190.379708,53.5809913 191.523149,53.8467638 192.240117,54.3659475 C192.985459,54.9609848 193.386228,55.8876195 193.309388,56.8382507 C193.364718,57.8511189 192.944114,58.8317673 192.172128,59.4897959 C191.254044,60.166429 190.127395,60.4989545 188.989038,60.4292711 C188.865423,60.4292711 188.704723,60.4292711 188.5193,60.4292711 L187.86414,60.4292711 L187.86414,63.3404082 L188.11137,63.5938192 L189.291895,63.6803499 L189.291895,64.4714869 L184.415277,64.4034985 Z M187.86414,59.4588921 L187.938309,59.4588921 C188.185539,59.4588921 188.364781,59.4588921 188.476035,59.4588921 C189.186619,59.5613293 189.90396,59.3232009 190.41222,58.8161564 C190.920481,58.3091118 191.160327,57.5923433 191.059592,56.881516 C191.096628,56.2298368 190.874446,55.5899543 190.441516,55.1014577 C189.979036,54.6664334 189.356885,54.442638 188.723265,54.4833819 L187.86414,54.4833819 L187.86414,59.4588921 Z" id="Shape" fill="#003B4D"></path>
            <path d="M197.56793,53.4450146 L199.304723,53.4450146 L203.099708,63.4578426 L204.070087,63.624723 L204.070087,64.4158601 L199.613761,64.4158601 L199.613761,63.624723 L200.658309,63.5196501 L200.775743,63.3156851 L199.786822,60.5714286 L196.18344,60.5714286 L195.194519,63.3033236 L195.361399,63.5072886 L196.399767,63.624723 L196.399767,64.4158601 L192.845831,64.4158601 L192.845831,63.624723 L193.840933,63.4763848 L197.56793,53.4450146 Z M197.932595,55.6639067 L196.498659,59.6257726 L199.409796,59.6257726 L197.932595,55.6639067 Z" id="Shape" fill="#003B4D"></path>
            <path d="M211.215044,56.7208163 L211.215044,58.8717201 L210.226122,58.8717201 L210.065423,57.6355685 L209.861458,57.4501458 C209.687282,57.3691291 209.504944,57.3069682 209.317551,57.264723 C209.139473,57.2211847 208.95696,57.1983706 208.773644,57.1967347 C208.444288,57.1773032 208.117907,57.2686898 207.846531,57.4563265 C207.628502,57.6288162 207.506628,57.8955585 207.51895,58.1732945 C207.515873,58.4173369 207.60915,58.6527497 207.778542,58.8284548 C208.165147,59.1452505 208.596229,59.4034832 209.057959,59.5948688 L209.088863,59.5948688 C210.671137,60.3427405 211.468455,61.1029738 211.468455,61.8755685 C211.497952,62.6353293 211.162607,63.3634422 210.566064,63.8348688 C209.84737,64.3472929 208.974865,64.5981381 208.093761,64.545656 C207.661302,64.5450183 207.229499,64.5119616 206.801983,64.4467638 C206.318925,64.368914 205.840288,64.2657594 205.368047,64.1377259 L205.368047,61.7457726 L206.356968,61.7457726 L206.554752,63.1302624 L206.721633,63.3156851 C206.934534,63.4235653 207.158298,63.5085128 207.389155,63.5690962 C207.623941,63.6258605 207.864573,63.6549023 208.106122,63.6556268 C208.476756,63.6769234 208.842808,63.565135 209.138309,63.3404082 C209.387879,63.1292631 209.524955,62.8139871 209.509155,62.4874636 C209.509155,62.0300875 209.033236,61.5912536 208.08758,61.1647813 C207.76,61.0226239 207.51277,60.9113703 207.333528,60.8186589 C206.796366,60.5871245 206.30935,60.2533505 205.899592,59.8359184 C205.621585,59.5182052 205.471765,59.1084022 205.4793,58.6862974 C205.465066,57.9943235 205.796496,57.3407344 206.363149,56.9433236 C207.053037,56.4672649 207.880933,56.2325858 208.718017,56.2758017 C209.131925,56.2786626 209.545072,56.3117144 209.954169,56.3746939 C210.383519,56.4540871 210.805333,56.5698791 211.215044,56.7208163 L211.215044,56.7208163 Z" id="Path" fill="#003B4D"></path>
            <path d="M76.2025656,1.82332362 L89.985656,1.82332362 C94.1597279,1.82332362 97.2665889,2.54441205 99.3062391,3.98658892 C101.345889,5.42876579 102.376016,7.62911565 102.396618,10.5876385 C102.447618,12.503785 101.728553,14.3604413 100.400233,15.7423907 C99.0899125,17.1268805 97.1326725,18.1693683 94.5285131,18.8698542 C97.6930612,18.9069388 100.165364,19.6857143 101.945423,21.2061808 C103.725481,22.7266472 104.609329,24.836346 104.597096,27.535277 C104.597096,30.9676579 103.3876,33.5903596 100.968863,35.4033819 C98.5501263,37.2164043 95.0476968,38.1229155 90.4615743,38.1229155 L76.2025656,38.1229155 L76.2025656,35.885481 L79.2620408,35.6197085 L80.1891545,34.8532945 L80.1891545,5.06822157 L79.2620408,4.30798834 L76.2025656,3.99895044 L76.2025656,1.82332362 Z M85.0719534,18.2455977 L85.8507289,18.288863 L87.0868805,18.288863 C90.5027794,18.288863 93.0059864,17.6852089 94.5965015,16.4779009 C96.1870165,15.2705928 96.9905151,13.3772206 97.0069971,10.7977843 C97.0069971,8.5974344 96.2673664,6.94923226 94.788105,5.85317784 C93.3109038,4.75918367 91.0796501,4.20291545 88.1376093,4.20291545 C87.8718367,4.20291545 87.4020991,4.20291545 86.7222157,4.27090379 L85.0472303,4.36361516 L85.0719534,18.2455977 Z M85.0719534,35.4095627 C85.7209329,35.4651895 86.3513703,35.5022741 86.9261808,35.5269971 C87.5009913,35.5517201 88.1067055,35.5702624 88.6691545,35.5702624 C92.3776093,35.5702624 95.0538776,34.9521866 96.7412245,33.716035 C98.4285714,32.4798834 99.256793,30.5391254 99.256793,27.8628571 C99.256793,25.4193975 98.5233431,23.5981341 97.0564431,22.3990671 C95.5895432,21.2 93.3500486,20.6025267 90.3379592,20.6066261 C89.6333528,20.6066261 88.836035,20.637551 87.9460058,20.6993586 C87.0559767,20.7611662 86.0917784,20.841516 85.028688,20.9465889 L85.0719534,35.4095627 Z" id="Shape" fill="#003B4D"></path>
            <polygon id="Path" fill="#003B4D" points="108.731895 38.1043732 108.731895 35.885481 111.976793 35.4651895 112.953353 34.4330029 112.953353 5.06822157 112.267289 4.30798834 108.676268 3.99895044 108.676268 1.83568513 120.166297 1.83568513 120.166297 3.28816327 130.327464 30.4340525 140.599883 3.49830904 140.599883 1.82332362 152.164082 1.82332362 152.164082 3.99895044 148.758484 4.32034985 148.097143 5.08058309 148.097143 34.8532945 148.758484 35.6197085 152.164082 35.885481 152.164082 38.1043732 139.252478 38.1043732 139.252478 35.885481 142.818776 35.6197085 143.34414 34.8532945 143.34414 4.3574344 130.54379 38.1043732 128.219825 38.1043732 115.889213 4.91370262 115.889213 34.4330029 116.859592 35.4651895 120.160117 35.885481 120.160117 38.1043732"></polygon>
            <path d="M157.158134,37.0227405 L157.158134,27.5167347 L160.353586,27.5167347 L160.971662,33.6974927 L161.682449,34.6184257 C162.545875,35.0469991 163.46249,35.3587732 164.408163,35.5455394 C165.503029,35.7630564 166.617176,35.8686726 167.733411,35.860758 C170.246919,35.860758 172.239184,35.2756463 173.710204,34.1054227 C175.163498,32.9705823 175.984153,31.2074371 175.916735,29.3647813 C175.916735,26.6040428 173.329057,24.1317396 168.153703,21.9478717 C167.591254,21.7006414 167.158601,21.5152187 166.861924,21.3977843 C163.153469,19.7907872 160.705889,18.297104 159.519184,16.9167347 C158.280059,15.4085313 157.641732,13.4957528 157.726764,11.545656 C157.635746,8.64702316 158.899153,5.87118373 161.144723,4.03603499 C163.427483,2.12412051 166.449874,1.16816327 170.211895,1.16816327 C171.738268,1.17012951 173.261865,1.29830184 174.767114,1.55137026 C176.346977,1.8181277 177.904732,2.20240156 179.427405,2.70099125 L179.427405,11.0635569 L176.602799,11.0635569 L175.786939,5.91498542 L174.995802,5.01877551 C174.291733,4.62431726 173.53379,4.33488311 172.746006,4.15965015 C171.879528,3.96803852 170.994208,3.87473779 170.106822,3.88151603 C167.857026,3.88151603 166.070787,4.46662779 164.748105,5.63685131 C163.409977,6.85003512 162.684475,8.5980424 162.770262,10.4022157 C162.723147,11.7507183 163.222357,13.0611457 164.154752,14.0365015 C165.073625,14.9924587 167.133878,16.1503207 170.33551,17.5100875 L171.682915,18.0354519 C174.826861,19.2716035 177.093139,20.5736832 178.481749,21.941691 C179.258036,22.6951678 179.864862,23.605407 180.261808,24.6117784 C180.672984,25.6526902 180.882725,26.7622234 180.879883,27.8813994 C180.959849,30.9753452 179.533453,33.915703 177.053994,35.7680466 C174.499281,37.7623712 171.110165,38.7615938 166.886647,38.7659221 C165.102944,38.7723214 163.322144,38.6213361 161.565015,38.314519 C160.051193,38.0551445 158.572421,37.6216757 157.158134,37.0227405 Z" id="Path" fill="#003B4D"></path>
            <path d="M187.233703,37.0227405 L187.233703,27.5167347 L190.410612,27.5167347 L191.028688,33.6974927 L191.739475,34.6184257 C192.600724,35.0470259 193.515302,35.3588139 194.459009,35.5455394 C195.55601,35.7627145 196.672171,35.8683253 197.790437,35.860758 C200.308066,35.860758 202.30033,35.2756463 203.76723,34.1054227 C205.220524,32.9705823 206.04118,31.2074371 205.973761,29.3647813 C205.973761,26.6040428 203.386084,24.1317396 198.210729,21.9478717 C197.64828,21.7006414 197.215627,21.5152187 196.91895,21.3977843 C193.210496,19.7907872 190.762915,18.297104 189.57621,16.9167347 C188.334478,15.4099737 187.695807,13.4961653 187.78379,11.545656 C187.692772,8.64702316 188.956179,5.87118373 191.201749,4.03603499 C193.476268,2.12412051 196.498659,1.16816327 200.268921,1.16816327 C201.795294,1.17012951 203.318891,1.29830184 204.82414,1.55137026 C206.403854,1.81884364 207.961557,2.20310448 209.484431,2.70099125 L209.484431,11.0635569 L206.659825,11.0635569 L205.862507,5.91498542 L205.06519,5.01877551 C204.363313,4.62431323 203.607407,4.33486149 202.821574,4.15965015 C201.955096,3.96803852 201.069776,3.87473779 200.182391,3.88151603 C197.932595,3.88151603 196.140175,4.49959184 194.823673,5.63685131 C193.499969,6.85743797 192.788608,8.60412495 192.882915,10.4022157 C192.838158,11.7514872 193.339542,13.0617714 194.273586,14.0365015 C195.196579,14.9924587 197.256832,16.1503207 200.454344,17.5100875 L201.795569,18.0354519 C204.947755,19.2716035 207.214033,20.5736832 208.594402,21.941691 C209.370689,22.6951678 209.977515,23.605407 210.374461,24.6117784 C210.785637,25.6526902 210.995378,26.7622234 210.992536,27.8813994 C211.072503,30.9753452 209.646106,33.915703 207.166647,35.7680466 C204.616054,37.7623712 201.226939,38.7615938 196.9993,38.7659221 C195.215597,38.7723214 193.434797,38.6213361 191.677668,38.314519 C190.151014,38.0588129 188.659542,37.6252696 187.233703,37.0227405 L187.233703,37.0227405 Z" id="Path" fill="#003B4D"></path>
            <rect id="Rectangle" fill="url(#linearGradient-1)" x="75.2507289" y="45.5521866" width="135.717085" height="1.9283965"></rect>
            <path d="M57.8148105,13.078484 C60.3633412,13.0257445 62.6904091,14.5203347 63.7024509,16.8598991 C64.7144927,19.1994635 64.2102742,21.9188032 62.4267436,23.740014 C60.643213,25.5612248 57.9350075,26.1221772 55.574799,25.1592619 C53.2145905,24.1963467 51.6716827,21.9010296 51.671137,19.3519534 C51.6463732,17.7031203 52.2815182,16.1127561 53.4352992,14.9345994 C54.5890802,13.7564428 56.1658201,13.0881921 57.8148105,13.078484 Z M51.671137,32.4304373 C51.7424609,35.8056776 54.5238541,38.4910118 57.8995165,38.4437117 C61.2751789,38.3964116 63.9802406,35.6342007 63.9569667,32.2582872 C63.9336929,28.8823736 61.1908042,26.1577214 57.8148105,26.1569679 C54.3865561,26.1943216 51.6368195,29.0021511 51.671137,32.4304373 L51.671137,32.4304373 Z M0.618075802,45.5089213 C0.692777918,48.8832673 3.47558863,51.5654845 6.85039806,51.5159564 C10.2252075,51.4664283 12.9281092,48.7037038 12.9037579,45.3286188 C12.8794065,41.9535338 10.136922,39.2300979 6.76174927,39.2292711 C5.11167064,39.2389601 3.53397563,39.9080592 2.38001381,41.0875614 C1.226052,42.2670637 0.591645643,43.8590259 0.618075802,45.5089213 L0.618075802,45.5089213 Z M26.1446064,45.5089213 C26.2193085,48.8832673 29.0021192,51.5654845 32.3769287,51.5159564 C35.7517381,51.4664283 38.4546398,48.7037038 38.4302885,45.3286188 C38.4059372,41.9535338 35.6634526,39.2300979 32.2882799,39.2292711 C30.6382013,39.2389601 29.0605062,39.9080592 27.9065444,41.0875614 C26.7525826,42.2670637 26.1181763,43.8590259 26.1446064,45.5089213 L26.1446064,45.5089213 Z M13.3813411,58.593586 C13.452665,61.9688263 16.2340582,64.6541605 19.6097206,64.6068604 C22.985383,64.5595603 25.6904447,61.7973494 25.6671708,58.4214359 C25.6438969,55.0455223 22.9010083,52.3208701 19.5250146,52.3201166 C17.8760241,52.3298248 16.2992843,52.9980754 15.1455033,54.1762321 C13.9917223,55.3543887 13.3565772,56.9447529 13.3813411,58.593586 Z M26.1446064,58.593586 C26.2159303,61.9688263 28.9973235,64.6541605 32.3729859,64.6068604 C35.7486483,64.5595603 38.45371,61.7973494 38.4304361,58.4214359 C38.4071622,55.0455223 35.6642736,52.3208701 32.2882799,52.3201166 C30.6392894,52.3298248 29.0625496,52.9980754 27.9087686,54.1762321 C26.7549876,55.3543887 26.1198426,56.9447529 26.1446064,58.593586 L26.1446064,58.593586 Z M51.671137,58.593586 C51.7424609,61.9688263 54.5238541,64.6541605 57.8995165,64.6068604 C61.2751789,64.5595603 63.9802406,61.7973494 63.9569667,58.4214359 C63.9336929,55.0455223 61.1908042,52.3208701 57.8148105,52.3201166 C56.1658201,52.3298248 54.5890802,52.9980754 53.4352992,54.1762321 C52.2815182,55.3543887 51.6463732,56.9447529 51.671137,58.593586 L51.671137,58.593586 Z M51.671137,6.26728863 C51.739081,9.64341898 54.5190523,12.3318694 57.8955655,12.2867996 C61.2720787,12.2417297 63.9793012,9.48003595 63.9571075,6.10329492 C63.9349139,2.72655389 61.1916244,0.000683611262 57.8148105,0 C56.1669071,0.00972568524 54.5911209,0.677127713 53.4375204,1.85393952 C52.2839198,3.03075132 51.6480373,4.61951844 51.671137,6.26728863 L51.671137,6.26728863 Z M0.618075802,19.3519534 C0.689399698,22.7271936 3.47079287,25.4125278 6.84645529,25.3652277 C10.2221177,25.3179276 12.9271794,22.5557168 12.9039055,19.1798032 C12.8806316,15.8038896 10.137743,13.0792375 6.76174927,13.078484 C5.11275883,13.0881921 3.53601897,13.7564428 2.38223797,14.9345994 C1.22845696,16.1127561 0.593311939,17.7031203 0.618075802,19.3519534 Z M0.618075802,32.4304373 C0.689399698,35.8056776 3.47079287,38.4910118 6.84645529,38.4437117 C10.2221177,38.3964116 12.9271794,35.6342007 12.9039055,32.2582872 C12.8806316,28.8823736 10.137743,26.1577214 6.76174927,26.1569679 C3.33349483,26.1943216 0.583758299,29.0021511 0.618075802,32.4304373 Z M26.1446064,32.4304373 C26.2159303,35.8056776 28.9973235,38.4910118 32.3729859,38.4437117 C35.7486483,38.3964116 38.45371,35.6342007 38.4304361,32.2582872 C38.4071622,28.8823736 35.6642736,26.1577214 32.2882799,26.1569679 C28.8600254,26.1943216 26.1102889,29.0021511 26.1446064,32.4304373 L26.1446064,32.4304373 Z M13.3813411,45.5089213 C13.4560432,48.8832673 16.2388539,51.5654845 19.6136634,51.5159564 C22.9884728,51.4664283 25.6913745,48.7037038 25.6670232,45.3286188 C25.6426718,41.9535338 22.9001873,39.2300979 19.5250146,39.2292711 C17.8749359,39.2389601 16.2972409,39.9080592 15.1432791,41.0875614 C13.9893173,42.2670637 13.3549109,43.8590259 13.3813411,45.5089213 L13.3813411,45.5089213 Z M51.7020408,45.5089213 C51.7768702,48.8872736 54.5659791,51.5710033 57.9447078,51.5157257 C61.3234366,51.460448 64.023262,48.6869166 63.9875379,45.3079245 C63.9518138,41.9289324 61.1939527,39.2131019 57.8148105,39.2291993 C56.1647319,39.2389601 54.5870369,39.9080592 53.433075,41.0875614 C52.2791132,42.2670637 51.6447069,43.8590259 51.671137,45.5089213 L51.7020408,45.5089213 Z M0.648979592,58.593586 C0.720303488,61.9688263 3.50169666,64.6541605 6.87735908,64.6068604 C10.2530215,64.5595603 12.9580832,61.7973494 12.9348093,58.4214359 C12.9115354,55.0455223 10.1686468,52.3208701 6.79265306,52.3201166 C5.13829555,52.3215848 3.55357875,52.9862096 2.3931009,54.1652737 C1.23262306,55.3443378 0.593259778,56.939414 0.618075802,58.593586 L0.648979592,58.593586 Z M38.9696793,58.593586 C39.0410032,61.9688263 41.8223964,64.6541605 45.1980588,64.6068604 C48.5737212,64.5595603 51.2787829,61.7973494 51.255509,58.4214359 C51.2322351,55.0455223 48.4893465,52.3208701 45.1133528,52.3200643 C43.453641,52.3132908 41.8609236,52.9742623 40.6937316,54.1542423 C39.5265396,55.3342222 38.8829618,56.9340471 38.9078717,58.593586 L38.9696793,58.593586 Z" id="Shape" fill="url(#linearGradient-2)"></path>
        </g>
    </g>
</svg>